<?xml version="1.0" encoding="utf-8"?>
<!-- Generator: Adobe Illustrator 16.0.0, SVG Export Plug-In . SVG Version: 6.00 Build 0)  -->
<!DOCTYPE svg PUBLIC "-//W3C//DTD SVG 1.1//EN" "http://www.w3.org/Graphics/SVG/1.1/DTD/svg11.dtd">
<svg version="1.1" id="Layer_1" xmlns="http://www.w3.org/2000/svg" xmlns:xlink="http://www.w3.org/1999/xlink" x="0px" y="0px"
	 width="371.265px" height="1555.173px" viewBox="0 0 371.265 1555.173" enable-background="new 0 0 371.265 1555.173"
	 xml:space="preserve">
<circle opacity="0.8" fill="#327AB7" stroke="#FFFFFF" stroke-miterlimit="10" cx="168.854" cy="787.545" r="156"/>
<g>
	<path fill="#FFFFFF" d="M208.854,864.545c0,6.627-5.373,12-12,12h-56c-6.627,0-12-5.373-12-12v-154c0-6.627,5.373-12,12-12h56
		c6.627,0,12,5.373,12,12V864.545z"/>
	<path fill="#FFFFFF" d="M245.854,747.545c6.627,0,12,5.373,12,12v56c0,6.627-5.373,12-12,12h-154c-6.627,0-12-5.373-12-12v-56
		c0-6.627,5.373-12,12-12H245.854z"/>
</g>
</svg>
